<svg width="61" height="61" viewBox="0 0 61 61" fill="none" xmlns="http://www.w3.org/2000/svg">
<path d="M32.9677 28.0045C28.0323 26.3686 25.6477 25.3427 25.6477 22.7364C25.6477 19.9082 28.7255 18.8823 30.6664 18.8823C34.2986 18.8823 35.6295 21.6273 35.9345 22.5977L40.3155 20.74C39.8995 19.4923 38.0418 15.4164 33.2727 14.5291V11.0909H27.7273V14.5845C20.8509 16.1373 20.8232 22.5145 20.8232 22.7918C20.8232 29.0859 27.0618 30.8605 30.1118 31.9695C34.4927 33.5223 36.4336 34.9364 36.4336 37.5982C36.4336 40.7314 33.5223 42.0623 30.9436 42.0623C25.8973 42.0623 24.4555 36.8773 24.2891 36.2673L19.6864 38.125C21.4332 44.1973 26.0082 45.8332 27.7273 46.3323V49.9091H33.2727V46.4709C34.3818 46.2214 41.3136 44.835 41.3136 37.5427C41.3136 33.6886 39.6223 30.3059 32.9677 28.0045ZM5.54545 55.4545H0V38.8182H16.6364V44.3636H9.76C14.2241 51.0459 21.8491 55.4545 30.5 55.4545C44.2805 55.4545 55.4545 44.2805 55.4545 30.5H61C61 47.3582 47.3582 61 30.5 61C20.1855 61 11.0632 55.8705 5.54545 48.0514V55.4545ZM0 30.5C0 13.6418 13.6418 0 30.5 0C40.8145 0 49.9368 5.12955 55.4545 12.9486V5.54545H61V22.1818H44.3636V16.6364H51.24C46.7759 9.95409 39.1509 5.54545 30.5 5.54545C16.7195 5.54545 5.54545 16.7195 5.54545 30.5H0Z" fill="url(#paint0_linear_41_365)"/>
<defs>
<linearGradient id="paint0_linear_41_365" x1="30.5" y1="0" x2="30.5" y2="61" gradientUnits="userSpaceOnUse">
<stop stop-color="#4678CD"/>
<stop offset="1" stop-color="#6DD485"/>
</linearGradient>
</defs>
</svg>
